# xmcd
#
# Track frame offsets:
#	150
#	26197
#	66443
#	97109
#	120365
#	147680
#	169055
#
# Disc length: 2418 seconds
#
# Revision: 1
# Processed by: cddbd v1.5.2PL0 Copyright (c) Steve Scherf et al.
# Submitted via: audiograbber 1.83.01
#
DISCID=68097007
DTITLE=The Psychic Paramount - II
DYEAR=2011
DGENRE=instrumental
TTITLE0=Intro - SP
TTITLE1=DDB
TTITLE2=RW
TTITLE3=N5
TTITLE4=N6
TTITLE5=Isolated
TTITLE6=N5 Coda
EXTD=
EXTT0=
EXTT1=
EXTT2=
EXTT3=
EXTT4=
EXTT5=
EXTT6=
PLAYORDER=
